<svg width="32" height="32" viewBox="0 0 32 32" fill="none" xmlns="http://www.w3.org/2000/svg">
  <rect width="32" height="32" rx="6" fill="#F3E8E2"/>
  <path d="M16 8C13.5 8 12 9.5 12 11.5C12 13 13 14 14.5 14.5C13.5 15 12.5 16 12.5 17.5C12.5 19.5 14 21 16 21C18 21 19.5 19.5 19.5 17.5C19.5 16 18.5 15 17.5 14.5C19 14 20 13 20 11.5C20 9.5 18.5 8 16 8Z" fill="#D98C8C"/>
  <rect x="11" y="21" width="10" height="2" rx="1" fill="#8B4C4C"/>
  <circle cx="13.5" cy="12" r="0.5" fill="#F3E8E2"/>
  <circle cx="18.5" cy="12" r="0.5" fill="#F3E8E2"/>
</svg>
